<svg width="100" height="100" viewBox="0 0 100 100" fill="none" xmlns="http://www.w3.org/2000/svg">
<path d="M93.75 1.5625H25C22.4156 1.5625 20.3125 3.66562 20.3125 6.25V29.6875H9.375C5.06719 29.6875 1.5625 33.1922 1.5625 37.5V75C1.5625 79.3078 5.06719 82.8125 9.375 82.8125H24.3938L22.3109 89.0625H17.1875C14.6031 89.0625 12.5 91.1656 12.5 93.75V98.4375H59.375V93.75C59.375 91.1656 57.2719 89.0625 54.6875 89.0625H49.5641L47.4813 82.8125H62.5C66.8078 82.8125 70.3125 79.3078 70.3125 75V73.4375H93.75C96.3344 73.4375 98.4375 71.3344 98.4375 68.75V6.25C98.4375 3.66562 96.3344 1.5625 93.75 1.5625ZM25 4.6875H93.75C94.6109 4.6875 95.3125 5.38906 95.3125 6.25V14.0625H23.4375V6.25C23.4375 5.38906 24.1391 4.6875 25 4.6875ZM9.375 32.8125H62.5C65.0844 32.8125 67.1875 34.9156 67.1875 37.5V67.1875H4.6875V37.5C4.6875 34.9156 6.79063 32.8125 9.375 32.8125ZM70.3125 42.1875H89.0625V64.0625H70.3125V42.1875ZM56.25 93.75V95.3125H15.625V93.75C15.625 92.8891 16.3266 92.1875 17.1875 92.1875H54.6875C55.5484 92.1875 56.25 92.8891 56.25 93.75ZM46.2687 89.0625H25.6063L27.6891 82.8125H44.1859L46.2687 89.0625ZM62.5 79.6875H9.375C6.79063 79.6875 4.6875 77.5844 4.6875 75V70.3125H67.1875V75C67.1875 77.5844 65.0844 79.6875 62.5 79.6875ZM93.75 70.3125H70.3125V67.1875H92.1875V39.0625H70.3125V37.5C70.3125 33.1922 66.8078 29.6875 62.5 29.6875H23.4375V17.1875H95.3125V68.75C95.3125 69.6109 94.6109 70.3125 93.75 70.3125Z" fill="white"/>
<path d="M28.125 73.4375H31.25V76.5625H28.125V73.4375Z" fill="white"/>
<path d="M34.375 73.4375H37.5V76.5625H34.375V73.4375Z" fill="white"/>
<path d="M40.625 73.4375H43.75V76.5625H40.625V73.4375Z" fill="white"/>
<path d="M32.8125 7.8125H35.9375V10.9375H32.8125V7.8125Z" fill="white"/>
<path d="M39.0625 7.8125H42.1875V10.9375H39.0625V7.8125Z" fill="white"/>
<path d="M26.5625 7.8125H29.6875V10.9375H26.5625V7.8125Z" fill="white"/>
<path d="M26.5625 20.3125H29.6875V23.4375H26.5625V20.3125Z" fill="white"/>
<path d="M32.8125 20.3125H92.1875V23.4375H32.8125V20.3125Z" fill="white"/>
<path d="M73.4375 26.5625H92.1875V29.6875H73.4375V26.5625Z" fill="white"/>
<path d="M73.4375 32.8125H92.1875V35.9375H73.4375V32.8125Z" fill="white"/>
<path d="M12.5 64.0625H43.75C46.3344 64.0625 48.4375 61.9594 48.4375 59.375V40.625C48.4375 38.0406 46.3344 35.9375 43.75 35.9375H12.5C9.91562 35.9375 7.8125 38.0406 7.8125 40.625V59.375C7.8125 61.9594 9.91562 64.0625 12.5 64.0625ZM10.9375 40.625C10.9375 39.7641 11.6391 39.0625 12.5 39.0625H43.75C44.6109 39.0625 45.3125 39.7641 45.3125 40.625V59.375C45.3125 60.2359 44.6109 60.9375 43.75 60.9375H12.5C11.6391 60.9375 10.9375 60.2359 10.9375 59.375V40.625Z" fill="white"/>
<path d="M23.527 58.8553L29.7725 40.0993L32.7381 41.0868L26.4926 59.8428L23.527 58.8553Z" fill="white"/>
<path d="M35.4797 57.3547L42.8344 50L35.4797 42.6453L33.2703 44.8547L38.4156 50L33.2703 55.1453L35.4797 57.3547Z" fill="white"/>
<path d="M22.9797 55.1453L17.8344 50L22.9797 44.8547L20.7703 42.6453L13.4156 50L20.7703 57.3547L22.9797 55.1453Z" fill="white"/>
<path d="M51.5625 35.9375H64.0625V39.0625H51.5625V35.9375Z" fill="white"/>
<path d="M51.5625 42.1875H64.0625V45.3125H51.5625V42.1875Z" fill="white"/>
<path d="M51.5625 48.4375H64.0625V51.5625H51.5625V48.4375Z" fill="white"/>
<path d="M51.5625 54.6875H64.0625V57.8125H51.5625V54.6875Z" fill="white"/>
<path d="M54.6875 60.9375H57.8125V64.0625H54.6875V60.9375Z" fill="white"/>
<path d="M60.9375 60.9375H64.0625V64.0625H60.9375V60.9375Z" fill="white"/>
</svg>
