<svg width="77" height="77" viewBox="0 0 77 77" fill="none" xmlns="http://www.w3.org/2000/svg">
<path d="M77 38.5C77 17.237 59.763 0 38.5 0C17.237 0 0 17.237 0 38.5C0 59.763 17.237 77 38.5 77C59.763 77 77 59.763 77 38.5Z" fill="#1778F2"/>
<path d="M41.57 60.2312V39.6227H48.4876L49.525 31.5912H41.57V26.4633C41.57 24.1381 42.2159 22.5535 45.5505 22.5535H49.8034V15.3721C47.7449 15.1543 45.676 15.0489 43.6059 15.0561C37.4739 15.0561 33.276 18.7988 33.276 25.6726V31.5912H26.3408V39.6227H33.276V60.2312H41.57Z" fill="#FDFDFD"/>
</svg>
