<svg width="105" height="105" viewBox="0 0 105 105" fill="none" xmlns="http://www.w3.org/2000/svg">
<path d="M103.086 53.099C104.236 52.3724 105 51.0899 105 49.6289V41.4258C105 32.3794 97.6402 25.0195 88.5938 25.0195H79.9805V16.4062C79.9805 7.35984 72.6206 0 63.5742 0H16.4062C7.35984 0 0 7.35984 0 16.4062V63.5742C0 72.6206 7.35984 79.9805 16.4062 79.9805H25.0195V88.5938C25.0195 97.6402 32.3794 105 41.4258 105H88.5938C97.6402 105 105 97.6402 105 88.5938V73.0078C105 70.7425 103.164 68.9062 100.898 68.9062C99.7418 68.9062 98.6969 69.3851 97.9513 70.1554C97.699 70.3149 97.4605 70.5044 97.2405 70.7243L71.1945 96.7675C71.1849 96.7772 71.1752 96.787 71.1656 96.7969H59.4694L102.64 53.6263C102.806 53.4604 102.954 53.284 103.086 53.099ZM96.7969 82.7683V88.5938C96.7969 93.117 93.117 96.7969 88.5938 96.7969H82.7669L96.7969 82.7683ZM48.882 95.7834C48.5758 96.0896 48.3283 96.432 48.1392 96.7969H41.4258C39.8682 96.7969 38.4107 96.3605 37.169 95.6037L52.792 79.9805H63.5742C63.961 79.9805 64.3447 79.9669 64.7249 79.9405L48.882 95.7834ZM33.2227 87.949V79.9805H41.1912L33.2227 87.949ZM71.7773 63.5742C71.7773 68.0974 68.0974 71.7773 63.5742 71.7773H16.4062C11.883 71.7773 8.20312 68.0974 8.20312 63.5742V16.4062C8.20312 11.883 11.883 8.20312 16.4062 8.20312H63.5742C68.0974 8.20312 71.7773 11.883 71.7773 16.4062V63.5742ZM79.9805 33.2227H87.949L79.9805 41.1912V33.2227ZM96.7969 47.8685L79.9405 64.7249C79.9669 64.3447 79.9805 63.961 79.9805 63.5742V52.792L95.6037 37.1688C96.3605 38.4107 96.7969 39.8682 96.7969 41.4258V47.8685Z" fill="white"/>
</svg>
