<svg width="106" height="106" viewBox="0 0 106 106" fill="none" xmlns="http://www.w3.org/2000/svg">
<path d="M14.9062 102.688H76.1875C81.4521 102.688 86.5601 100.897 90.6714 97.6086C94.7827 94.3204 97.6526 89.7309 98.8091 84.5949C99.9655 79.4589 99.3396 74.0823 97.0344 69.3493C94.7291 64.6163 90.8817 60.8087 86.125 58.5528V24.8438C86.125 24.6262 86.0822 24.4109 85.9989 24.2099C85.9157 24.009 85.7937 23.8264 85.6399 23.6726L65.7649 3.79757C65.6111 3.64378 65.4285 3.52178 65.2276 3.43855C65.0266 3.35533 64.8113 3.31249 64.5938 3.3125H14.9062C12.7107 3.31497 10.6057 4.18824 9.05325 5.74075C7.50074 7.29325 6.62747 9.39818 6.625 11.5938V94.4062C6.62747 96.6018 7.50074 98.7068 9.05325 100.259C10.6057 101.812 12.7107 102.685 14.9062 102.688ZM96.0625 79.5C96.0625 83.4309 94.8969 87.2735 92.713 90.542C90.5291 93.8104 87.425 96.3578 83.7933 97.8621C80.1617 99.3664 76.1655 99.76 72.3101 98.9931C68.4547 98.2262 64.9133 96.3333 62.1338 93.5537C59.3542 90.7742 57.4613 87.2328 56.6944 83.3774C55.9275 79.522 56.3211 75.5258 57.8254 71.8942C59.3297 68.2625 61.8771 65.1584 65.1455 62.9745C68.414 60.7906 72.2566 59.625 76.1875 59.625C81.4569 59.6309 86.5087 61.7268 90.2347 65.4528C93.9607 69.1788 96.0566 74.2306 96.0625 79.5ZM66.25 8.96714L80.4704 23.1875H71.2188C69.9014 23.186 68.6384 22.6621 67.7069 21.7306C66.7754 20.7991 66.2515 19.5361 66.25 18.2188V8.96714ZM9.9375 11.5938C9.93903 10.2764 10.463 9.0135 11.3945 8.08201C12.326 7.15052 13.5889 6.62653 14.9062 6.625H62.9375V18.2188C62.94 20.4143 63.8132 22.5193 65.3657 24.0718C66.9182 25.6243 69.0232 26.4975 71.2188 26.5H82.8125V57.2785C77.4009 55.6638 71.5861 56.0798 66.4595 58.4485C61.333 60.8172 57.2472 64.9757 54.9693 70.1432C52.6914 75.3107 52.378 81.132 54.0879 86.5143C55.7978 91.8965 59.4135 96.4696 64.2561 99.375H14.9062C13.5889 99.3735 12.326 98.8495 11.3945 97.918C10.463 96.9865 9.93903 95.7236 9.9375 94.4062V11.5938Z" fill="white"/>
<path d="M33.125 34.7812C33.125 35.2205 33.2995 35.6418 33.6101 35.9524C33.9207 36.263 34.342 36.4375 34.7812 36.4375H74.5312C74.9705 36.4375 75.3918 36.263 75.7024 35.9524C76.013 35.6418 76.1875 35.2205 76.1875 34.7812C76.1875 34.342 76.013 33.9207 75.7024 33.6101C75.3918 33.2995 74.9705 33.125 74.5312 33.125H34.7812C34.342 33.125 33.9207 33.2995 33.6101 33.6101C33.2995 33.9207 33.125 34.342 33.125 34.7812Z" fill="white"/>
<path d="M18.2188 46.375H51.3438C51.783 46.375 52.2043 46.2005 52.5149 45.8899C52.8255 45.5793 53 45.158 53 44.7188C53 44.2795 52.8255 43.8582 52.5149 43.5476C52.2043 43.237 51.783 43.0625 51.3438 43.0625H18.2188C17.7795 43.0625 17.3582 43.237 17.0476 43.5476C16.737 43.8582 16.5625 44.2795 16.5625 44.7188C16.5625 45.158 16.737 45.5793 17.0476 45.8899C17.3582 46.2005 17.7795 46.375 18.2188 46.375Z" fill="white"/>
<path d="M57.9688 53H44.7188C44.2795 53 43.8582 53.1745 43.5476 53.4851C43.237 53.7957 43.0625 54.217 43.0625 54.6562C43.0625 55.0955 43.237 55.5168 43.5476 55.8274C43.8582 56.138 44.2795 56.3125 44.7188 56.3125H57.9688C58.408 56.3125 58.8293 56.138 59.1399 55.8274C59.4505 55.5168 59.625 55.0955 59.625 54.6562C59.625 54.217 59.4505 53.7957 59.1399 53.4851C58.8293 53.1745 58.408 53 57.9688 53Z" fill="white"/>
<path d="M18.2188 66.25H48.0312C48.4705 66.25 48.8918 66.0755 49.2024 65.7649C49.513 65.4543 49.6875 65.033 49.6875 64.5938C49.6875 64.1545 49.513 63.7332 49.2024 63.4226C48.8918 63.112 48.4705 62.9375 48.0312 62.9375H18.2188C17.7795 62.9375 17.3582 63.112 17.0476 63.4226C16.737 63.7332 16.5625 64.1545 16.5625 64.5938C16.5625 65.033 16.737 65.4543 17.0476 65.7649C17.3582 66.0755 17.7795 66.25 18.2188 66.25Z" fill="white"/>
<path d="M18.2188 36.4375H28.1562C28.5955 36.4375 29.0168 36.263 29.3274 35.9524C29.638 35.6418 29.8125 35.2205 29.8125 34.7812C29.8125 34.342 29.638 33.9207 29.3274 33.6101C29.0168 33.2995 28.5955 33.125 28.1562 33.125H18.2188C17.7795 33.125 17.3582 33.2995 17.0476 33.6101C16.737 33.9207 16.5625 34.342 16.5625 34.7812C16.5625 35.2205 16.737 35.6418 17.0476 35.9524C17.3582 36.263 17.7795 36.4375 18.2188 36.4375Z" fill="white"/>
<path d="M74.5312 43.0625H57.9688C57.5295 43.0625 57.1082 43.237 56.7976 43.5476C56.487 43.8582 56.3125 44.2795 56.3125 44.7188C56.3125 45.158 56.487 45.5793 56.7976 45.8899C57.1082 46.2005 57.5295 46.375 57.9688 46.375H74.5312C74.9705 46.375 75.3918 46.2005 75.7024 45.8899C76.013 45.5793 76.1875 45.158 76.1875 44.7188C76.1875 44.2795 76.013 43.8582 75.7024 43.5476C75.3918 43.237 74.9705 43.0625 74.5312 43.0625Z" fill="white"/>
<path d="M18.2188 56.3125H38.0938C38.533 56.3125 38.9543 56.138 39.2649 55.8274C39.5755 55.5168 39.75 55.0955 39.75 54.6562C39.75 54.217 39.5755 53.7957 39.2649 53.4851C38.9543 53.1745 38.533 53 38.0938 53H18.2188C17.7795 53 17.3582 53.1745 17.0476 53.4851C16.737 53.7957 16.5625 54.217 16.5625 54.6562C16.5625 55.0955 16.737 55.5168 17.0476 55.8274C17.3582 56.138 17.7795 56.3125 18.2188 56.3125Z" fill="white"/>
<path d="M44.7188 82.8125H38.0938C37.6545 82.8125 37.2332 82.987 36.9226 83.2976C36.612 83.6082 36.4375 84.0295 36.4375 84.4688C36.4375 84.908 36.612 85.3293 36.9226 85.6399C37.2332 85.9505 37.6545 86.125 38.0938 86.125H44.7188C45.158 86.125 45.5793 85.9505 45.8899 85.6399C46.2005 85.3293 46.375 84.908 46.375 84.4688C46.375 84.0295 46.2005 83.6082 45.8899 83.2976C45.5793 82.987 45.158 82.8125 44.7188 82.8125Z" fill="white"/>
<path d="M18.2188 86.125H31.4688C31.908 86.125 32.3293 85.9505 32.6399 85.6399C32.9505 85.3293 33.125 84.908 33.125 84.4688C33.125 84.0295 32.9505 83.6082 32.6399 83.2976C32.3293 82.987 31.908 82.8125 31.4688 82.8125H18.2188C17.7795 82.8125 17.3582 82.987 17.0476 83.2976C16.737 83.6082 16.5625 84.0295 16.5625 84.4688C16.5625 84.908 16.737 85.3293 17.0476 85.6399C17.3582 85.9505 17.7795 86.125 18.2188 86.125Z" fill="white"/>
<path d="M18.2188 76.1875H28.1562C28.5955 76.1875 29.0168 76.013 29.3274 75.7024C29.638 75.3918 29.8125 74.9705 29.8125 74.5312C29.8125 74.092 29.638 73.6707 29.3274 73.3601C29.0168 73.0495 28.5955 72.875 28.1562 72.875H18.2188C17.7795 72.875 17.3582 73.0495 17.0476 73.3601C16.737 73.6707 16.5625 74.092 16.5625 74.5312C16.5625 74.9705 16.737 75.3918 17.0476 75.7024C17.3582 76.013 17.7795 76.1875 18.2188 76.1875Z" fill="white"/>
<path d="M18.2188 26.5H38.0938C38.533 26.5 38.9543 26.3255 39.2649 26.0149C39.5755 25.7043 39.75 25.283 39.75 24.8438C39.75 24.4045 39.5755 23.9832 39.2649 23.6726C38.9543 23.362 38.533 23.1875 38.0938 23.1875H18.2188C17.7795 23.1875 17.3582 23.362 17.0476 23.6726C16.737 23.9832 16.5625 24.4045 16.5625 24.8438C16.5625 25.283 16.737 25.7043 17.0476 26.0149C17.3582 26.3255 17.7795 26.5 18.2188 26.5Z" fill="white"/>
<path d="M44.7188 72.875H34.7812C34.342 72.875 33.9207 73.0495 33.6101 73.3601C33.2995 73.6707 33.125 74.092 33.125 74.5312C33.125 74.9705 33.2995 75.3918 33.6101 75.7024C33.9207 76.013 34.342 76.1875 34.7812 76.1875H44.7188C45.158 76.1875 45.5793 76.013 45.8899 75.7024C46.2005 75.3918 46.375 74.9705 46.375 74.5312C46.375 74.092 46.2005 73.6707 45.8899 73.3601C45.5793 73.0495 45.158 72.875 44.7188 72.875Z" fill="white"/>
<path d="M67.4212 83.2976C67.2674 83.1438 67.0848 83.0217 66.8839 82.9385C66.6829 82.8553 66.4675 82.8124 66.25 82.8124C66.0325 82.8124 65.8171 82.8553 65.6162 82.9385C65.4152 83.0217 65.2326 83.1438 65.0788 83.2976C64.925 83.4514 64.803 83.6339 64.7198 83.8349C64.6366 84.0358 64.5937 84.2512 64.5937 84.4687C64.5937 84.6862 64.6366 84.9016 64.7198 85.1026C64.803 85.3035 64.925 85.4861 65.0788 85.6399L71.7038 92.2649C71.8576 92.4187 72.0402 92.5407 72.2412 92.6239C72.4421 92.7072 72.6575 92.75 72.875 92.75C72.9294 92.75 72.9838 92.7473 73.0384 92.7419C73.2822 92.7178 73.5177 92.6398 73.7277 92.5137C73.9378 92.3876 74.1173 92.2164 74.2532 92.0125L87.5032 72.1375C87.7441 71.772 87.8305 71.3261 87.7436 70.897C87.6566 70.468 87.4033 70.0909 87.0391 69.8481C86.6749 69.6052 86.2294 69.5164 85.8 69.6011C85.3705 69.6858 84.992 69.937 84.7472 70.2999L72.6179 88.494L67.4212 83.2976Z" fill="white"/>
</svg>
