<svg width="77" height="77" viewBox="0 0 77 77" fill="none" xmlns="http://www.w3.org/2000/svg">
<circle cx="38.5" cy="38.5" r="38.5" fill="white"/>
<path d="M69.9593 32.2164H67.375V32.0833H38.5V44.9166H56.6319C53.9866 52.3872 46.8786 57.75 38.5 57.75C27.8692 57.75 19.25 49.1308 19.25 38.5C19.25 27.8691 27.8692 19.25 38.5 19.25C43.4072 19.25 47.8716 21.1012 51.2708 24.125L60.3456 15.0503C54.6155 9.70998 46.9508 6.41663 38.5 6.41663C20.782 6.41663 6.41669 20.7819 6.41669 38.5C6.41669 56.218 20.782 70.5833 38.5 70.5833C56.218 70.5833 70.5834 56.218 70.5834 38.5C70.5834 36.3488 70.362 34.2489 69.9593 32.2164Z" fill="#FFC107"/>
<path d="M10.1159 23.5668L20.6569 31.2973C23.5091 24.2357 30.4166 19.25 38.5 19.25C43.4072 19.25 47.8716 21.1012 51.2708 24.125L60.3456 15.0503C54.6155 9.70998 46.9508 6.41663 38.5 6.41663C26.1768 6.41663 15.4899 13.3739 10.1159 23.5668Z" fill="#FF3D00"/>
<path d="M38.4999 70.5832C46.7871 70.5832 54.317 67.4118 60.0102 62.2544L50.0804 53.8518C46.751 56.3838 42.6827 57.7532 38.4999 57.7499C30.1551 57.7499 23.0695 52.4289 20.4001 45.0032L9.93774 53.0641C15.2475 63.4543 26.0307 70.5832 38.4999 70.5832Z" fill="#4CAF50"/>
<path d="M69.9593 32.2164H67.375V32.0833H38.5V44.9166H56.6319C55.3665 48.4721 53.0873 51.579 50.0757 53.8534L50.0805 53.8502L60.0103 62.2528C59.3076 62.8913 70.5833 54.5416 70.5833 38.4999C70.5833 36.3487 70.362 34.2489 69.9593 32.2164Z" fill="#1976D2"/>
</svg>
