<svg width="77" height="77" viewBox="0 0 77 77" fill="none" xmlns="http://www.w3.org/2000/svg">
<circle cx="38.5" cy="38.5" r="38.5" fill="white"/>
<path d="M29.6683 38.9997C29.6683 37.1538 30.2158 35.3493 31.2414 33.8145C32.2671 32.2796 33.7248 31.0833 35.4304 30.3769C37.136 29.6705 39.0128 29.4857 40.8235 29.8458C42.6341 30.2059 44.2973 31.0948 45.6027 32.4001C46.9081 33.7054 47.7971 35.3684 48.1573 37.1789C48.5174 38.9894 48.3326 40.866 47.6261 42.5714C46.9196 44.2768 45.7232 45.7345 44.1883 46.76C42.6533 47.7856 40.8486 48.333 39.0025 48.333C36.5269 48.333 34.1527 47.3496 32.4022 45.5993C30.6517 43.849 29.6683 41.4751 29.6683 38.9997ZM24.6218 38.9997C24.6218 41.8433 25.4651 44.623 27.045 46.9873C28.6249 49.3517 30.8705 51.1945 33.4978 52.2827C36.1252 53.371 39.0162 53.6558 41.8054 53.1012C44.5946 52.5465 47.1567 51.1774 49.1677 49.1668C51.1787 47.1562 52.5483 44.5945 53.1033 41.8057C53.6583 39.0168 53.3738 36.126 52.2858 33.4988C51.1977 30.8716 49.355 28.626 46.9906 27.046C44.6262 25.466 41.8463 24.6225 39.0025 24.6221C37.1142 24.6221 35.2444 24.9939 33.4998 25.7164C31.7552 26.4389 30.1701 27.498 28.8348 28.8331C27.4996 30.1682 26.4405 31.7532 25.7179 33.4976C24.9953 35.242 24.6234 37.1116 24.6235 38.9997H24.6218ZM50.5878 24.0523C50.5876 24.7168 50.7845 25.3665 51.1535 25.9191C51.5226 26.4718 52.0472 26.9026 52.6612 27.1571C53.2751 27.4117 53.9507 27.4784 54.6026 27.349C55.2545 27.2195 55.8533 26.8997 56.3234 26.43C56.7935 25.9602 57.1138 25.3617 57.2436 24.7099C57.3735 24.0582 57.3072 23.3826 57.053 22.7686C56.7989 22.1545 56.3684 21.6296 55.8159 21.2603C55.2634 20.8909 54.6138 20.6936 53.9492 20.6934C53.0583 20.6938 52.204 21.0478 51.574 21.6776C50.9439 22.3074 50.5896 23.1615 50.5889 24.0523H50.5878ZM27.6917 61.791C25.9158 61.7707 24.1568 61.4449 22.4914 60.828C21.2752 60.3785 20.1748 59.6629 19.2706 58.7335C18.3398 57.8314 17.6238 56.7315 17.1759 55.5152C16.5579 53.8502 16.2314 52.0913 16.2107 50.3155C16.075 47.364 16.0459 46.4773 16.0459 39.0003C16.0459 31.5232 16.075 30.6388 16.2107 27.6851C16.233 25.9096 16.5587 24.1511 17.1737 22.4854C17.6233 21.2692 18.339 20.1689 19.2684 19.2649C20.171 18.3336 21.2719 17.6177 22.4892 17.1704C24.1551 16.5527 25.915 16.2268 27.6917 16.2069C30.6435 16.0712 31.5302 16.0421 39.0025 16.0421C46.4747 16.0421 47.3648 16.0712 50.3188 16.2069C52.0944 16.2291 53.8531 16.5548 55.519 17.1698C56.7357 17.6185 57.8363 18.3342 58.7398 19.2643C59.67 20.1678 60.3858 21.2683 60.8345 22.4848C61.4518 24.1499 61.7776 25.9089 61.7976 27.6845C61.9332 30.6382 61.9623 31.5227 61.9623 38.9997C61.9623 46.4767 61.9354 47.3612 61.7976 50.3149C61.7761 52.0904 61.4504 53.8492 60.8345 55.5146C60.3685 56.7221 59.6548 57.8187 58.7393 58.7337C57.8238 59.6488 56.7268 60.362 55.519 60.8274C53.8538 61.4447 52.0946 61.7704 50.3188 61.7904C47.367 61.926 46.4802 61.9551 39.0025 61.9551C31.5247 61.9551 30.6402 61.9282 27.6917 61.7904V61.791ZM27.4578 11.1696C25.1349 11.2156 22.8366 11.6554 20.6609 12.4703C18.7922 13.1734 17.0992 14.2754 15.7 15.6996C14.2742 17.0973 13.1717 18.7902 12.4699 20.6594C11.6551 22.8351 11.2155 25.1333 11.1697 27.4562C11.0318 30.4417 11 31.3959 11 38.9997C11 46.6036 11.0318 47.5578 11.1697 50.5433C11.2157 52.866 11.6555 55.164 12.4704 57.3395C13.1722 59.2087 14.2746 60.9018 15.7 62.2999C17.0997 63.7234 18.7922 64.8254 20.6603 65.5297C22.8361 66.3443 25.1343 66.7841 27.4572 66.8304C30.4447 66.966 31.3973 67 39.0019 67C46.6065 67 47.5608 66.9682 50.5466 66.8304C52.8695 66.7844 55.1678 66.3446 57.3435 65.5297C59.2041 64.8105 60.8939 63.7104 62.3044 62.3C63.715 60.8895 64.8152 59.2 65.5345 57.3395C66.3505 55.1643 66.7904 52.8661 66.8353 50.5433C66.9709 47.5556 67 46.6036 67 38.9997C67 31.3959 66.9682 30.4417 66.8353 27.4562C66.7894 25.1335 66.3496 22.8354 65.5345 20.6599C64.8303 18.7919 63.7284 17.0994 62.3049 15.6996C60.9072 14.2747 59.2151 13.1724 57.3468 12.4697C55.171 11.6544 52.8725 11.2148 50.5494 11.1696C47.5641 11.034 46.6093 11 39.0025 11C31.3957 11 30.4425 11.0318 27.4556 11.1696" fill="url(#paint0_radial)"/>
<path d="M29.6683 38.9997C29.6683 37.1538 30.2158 35.3493 31.2414 33.8145C32.2671 32.2796 33.7248 31.0833 35.4304 30.3769C37.136 29.6705 39.0128 29.4857 40.8235 29.8458C42.6341 30.2059 44.2973 31.0948 45.6027 32.4001C46.9081 33.7054 47.7971 35.3684 48.1573 37.1789C48.5174 38.9894 48.3326 40.866 47.6261 42.5714C46.9196 44.2768 45.7232 45.7345 44.1883 46.76C42.6533 47.7856 40.8486 48.333 39.0025 48.333C36.5269 48.333 34.1527 47.3496 32.4022 45.5993C30.6517 43.849 29.6683 41.4751 29.6683 38.9997ZM24.6218 38.9997C24.6218 41.8433 25.4651 44.623 27.045 46.9873C28.6249 49.3517 30.8705 51.1945 33.4978 52.2827C36.1252 53.371 39.0162 53.6558 41.8054 53.1012C44.5946 52.5465 47.1567 51.1774 49.1677 49.1668C51.1787 47.1562 52.5483 44.5945 53.1033 41.8057C53.6583 39.0168 53.3738 36.126 52.2858 33.4988C51.1977 30.8716 49.355 28.626 46.9906 27.046C44.6262 25.466 41.8463 24.6225 39.0025 24.6221C37.1142 24.6221 35.2444 24.9939 33.4998 25.7164C31.7552 26.4389 30.1701 27.498 28.8348 28.8331C27.4996 30.1682 26.4405 31.7532 25.7179 33.4976C24.9953 35.242 24.6234 37.1116 24.6235 38.9997H24.6218ZM50.5878 24.0523C50.5876 24.7168 50.7845 25.3665 51.1535 25.9191C51.5226 26.4718 52.0472 26.9026 52.6612 27.1571C53.2751 27.4117 53.9507 27.4784 54.6026 27.349C55.2545 27.2195 55.8533 26.8997 56.3234 26.43C56.7935 25.9602 57.1138 25.3617 57.2436 24.7099C57.3735 24.0582 57.3072 23.3826 57.053 22.7686C56.7989 22.1545 56.3684 21.6296 55.8159 21.2603C55.2634 20.8909 54.6138 20.6936 53.9492 20.6934C53.0583 20.6938 52.204 21.0478 51.574 21.6776C50.9439 22.3074 50.5896 23.1615 50.5889 24.0523H50.5878ZM27.6917 61.791C25.9158 61.7707 24.1568 61.4449 22.4914 60.828C21.2752 60.3785 20.1748 59.6629 19.2706 58.7335C18.3398 57.8314 17.6238 56.7315 17.1759 55.5152C16.5579 53.8502 16.2314 52.0913 16.2107 50.3155C16.075 47.364 16.0459 46.4773 16.0459 39.0003C16.0459 31.5232 16.075 30.6388 16.2107 27.6851C16.233 25.9096 16.5587 24.1511 17.1737 22.4854C17.6233 21.2692 18.339 20.1689 19.2684 19.2649C20.171 18.3336 21.2719 17.6177 22.4892 17.1704C24.1551 16.5527 25.915 16.2268 27.6917 16.2069C30.6435 16.0712 31.5302 16.0421 39.0025 16.0421C46.4747 16.0421 47.3648 16.0712 50.3188 16.2069C52.0944 16.2291 53.8531 16.5548 55.519 17.1698C56.7357 17.6185 57.8363 18.3342 58.7398 19.2643C59.67 20.1678 60.3858 21.2683 60.8345 22.4848C61.4518 24.1499 61.7776 25.9089 61.7976 27.6845C61.9332 30.6382 61.9623 31.5227 61.9623 38.9997C61.9623 46.4767 61.9354 47.3612 61.7976 50.3149C61.7761 52.0904 61.4504 53.8492 60.8345 55.5146C60.3685 56.7221 59.6548 57.8187 58.7393 58.7337C57.8238 59.6488 56.7268 60.362 55.519 60.8274C53.8538 61.4447 52.0946 61.7704 50.3188 61.7904C47.367 61.926 46.4802 61.9551 39.0025 61.9551C31.5247 61.9551 30.6402 61.9282 27.6917 61.7904V61.791ZM27.4578 11.1696C25.1349 11.2156 22.8366 11.6554 20.6609 12.4703C18.7922 13.1734 17.0992 14.2754 15.7 15.6996C14.2742 17.0973 13.1717 18.7902 12.4699 20.6594C11.6551 22.8351 11.2155 25.1333 11.1697 27.4562C11.0318 30.4417 11 31.3959 11 38.9997C11 46.6036 11.0318 47.5578 11.1697 50.5433C11.2157 52.866 11.6555 55.164 12.4704 57.3395C13.1722 59.2087 14.2746 60.9018 15.7 62.2999C17.0997 63.7234 18.7922 64.8254 20.6603 65.5297C22.8361 66.3443 25.1343 66.7841 27.4572 66.8304C30.4447 66.966 31.3973 67 39.0019 67C46.6065 67 47.5608 66.9682 50.5466 66.8304C52.8695 66.7844 55.1678 66.3446 57.3435 65.5297C59.2041 64.8105 60.8939 63.7104 62.3044 62.3C63.715 60.8895 64.8152 59.2 65.5345 57.3395C66.3505 55.1643 66.7904 52.8661 66.8353 50.5433C66.9709 47.5556 67 46.6036 67 38.9997C67 31.3959 66.9682 30.4417 66.8353 27.4562C66.7894 25.1335 66.3496 22.8354 65.5345 20.6599C64.8303 18.7919 63.7284 17.0994 62.3049 15.6996C60.9072 14.2747 59.2151 13.1724 57.3468 12.4697C55.171 11.6544 52.8725 11.2148 50.5494 11.1696C47.5641 11.034 46.6093 11 39.0025 11C31.3957 11 30.4425 11.0318 27.4556 11.1696" fill="url(#paint1_radial)"/>
<defs>
<radialGradient id="paint0_radial" cx="0" cy="0" r="1" gradientUnits="userSpaceOnUse" gradientTransform="translate(18.4404 67.2641) scale(73.1068 73.0996)">
<stop offset="0.09" stop-color="#FA8F21"/>
<stop offset="0.78" stop-color="#D82D7E"/>
</radialGradient>
<radialGradient id="paint1_radial" cx="0" cy="0" r="1" gradientUnits="userSpaceOnUse" gradientTransform="translate(44.9648 69.7725) scale(57.6181 57.6125)">
<stop offset="0.64" stop-color="#8C3AAA" stop-opacity="0"/>
<stop offset="1" stop-color="#8C3AAA"/>
</radialGradient>
</defs>
</svg>
