<svg width="77" height="77" viewBox="0 0 77 77" fill="none" xmlns="http://www.w3.org/2000/svg">
<path d="M38.4997 76.9993C59.7624 76.9993 76.9993 59.7624 76.9993 38.4997C76.9993 17.2369 59.7624 0 38.4997 0C17.2369 0 0 17.2369 0 38.4997C0 59.7624 17.2369 76.9993 38.4997 76.9993Z" fill="#55ACEE"/>
<path d="M62.0818 27.6686C60.4319 28.4001 58.6572 28.895 56.7959 29.116C58.6963 27.9774 60.1546 26.1759 60.843 24.0257C59.0648 25.0805 57.0945 25.8458 54.9992 26.2582C53.3205 24.4704 50.9288 23.3531 48.2804 23.3531C43.1991 23.3531 39.0779 27.4743 39.0779 32.5557C39.0779 33.2769 39.1596 33.979 39.3174 34.653C31.6694 34.2693 24.8881 30.6059 20.349 25.0366C19.557 26.3955 19.1027 27.9774 19.1027 29.6636C19.1027 32.8556 20.7285 35.6735 23.1964 37.3233C21.6886 37.276 20.2687 36.8621 19.0285 36.171C19.0279 36.2102 19.0279 36.2493 19.0279 36.2877C19.0279 40.7466 22.2013 44.4656 26.4103 45.3104C25.6389 45.5218 24.8243 45.6336 23.9863 45.6336C23.392 45.6336 22.8162 45.5767 22.2548 45.4696C23.4256 49.1248 26.8235 51.7856 30.8513 51.8604C27.7012 54.329 23.7338 55.7997 19.4211 55.7997C18.6799 55.7997 17.9456 55.7565 17.227 55.6707C21.2974 58.2827 26.1358 59.8056 31.3324 59.8056C48.2591 59.8056 57.5158 45.7833 57.5158 33.6215C57.5158 33.2227 57.5069 32.8254 57.4891 32.4314C59.2885 31.1343 60.8485 29.514 62.0818 27.6686Z" fill="#F1F2F2"/>
</svg>
