<svg width="84" height="96" viewBox="0 0 84 96" fill="none" xmlns="http://www.w3.org/2000/svg">
<g clip-path="url(#clip0)">
<path d="M77.875 0H6.125C2.7475 0 0 3.14 0 7V17C0 20.86 2.7475 24 6.125 24H77.875C81.2525 24 84 20.86 84 17V7C84 3.14 81.2525 0 77.875 0Z" fill="white"/>
<path d="M77.875 36H51.625C48.265 36 45.5 39.16 45.5 43V83C45.5 86.84 48.265 90 51.625 90H77.875C81.235 90 84 86.84 84 83V43C84 39.16 81.235 36 77.875 36ZM50.75 43C50.75 42.44 51.135 42 51.625 42H77.875C78.365 42 78.75 42.44 78.75 43V61.48L78.225 60.76C75.88 57.56 71.12 57.56 68.775 60.76L65.205 65.72C64.96 66 64.68 66.08 64.54 66.08C64.4 66.08 64.12 66.04 63.91 65.8L62.09 63.72C59.71 61 55.79 61 53.41 63.72L50.75 66.76V43Z" fill="white"/>
<path d="M2.625 42H35.875C37.324 42 38.5 40.656 38.5 39C38.5 37.344 37.324 36 35.875 36H2.625C1.176 36 0 37.344 0 39C0 40.656 1.176 42 2.625 42Z" fill="white"/>
<path d="M2.625 54H35.875C37.324 54 38.5 52.656 38.5 51C38.5 49.344 37.324 48 35.875 48H2.625C1.176 48 0 49.344 0 51C0 52.656 1.176 54 2.625 54Z" fill="white"/>
<path d="M2.625 66H35.875C37.324 66 38.5 64.656 38.5 63C38.5 61.344 37.324 60 35.875 60H2.625C1.176 60 0 61.344 0 63C0 64.656 1.176 66 2.625 66Z" fill="white"/>
<path d="M2.625 78H35.875C37.324 78 38.5 76.656 38.5 75C38.5 73.344 37.324 72 35.875 72H2.625C1.176 72 0 73.344 0 75C0 76.656 1.176 78 2.625 78Z" fill="white"/>
<path d="M2.625 90H35.875C37.324 90 38.5 88.656 38.5 87C38.5 85.344 37.324 84 35.875 84H2.625C1.176 84 0 85.344 0 87C0 88.656 1.176 90 2.625 90Z" fill="white"/>
</g>
<defs>
<clipPath id="clip0">
<rect width="84" height="96" fill="white"/>
</clipPath>
</defs>
</svg>
